<svg id="svg" version="1.1" viewBox="0 0 300 200" width="300" height="200" xmlns="http://www.w3.org/2000/svg"><g xmlns="http://www.w3.org/2000/svg" id="svg" fill="#000000" fill-rule="evenodd" stroke="none" stroke-width="1" stroke-linecap="butt" stroke-linejoin="miter" stroke-miterlimit="10" stroke-dasharray="" stroke-dashoffset="0" font-family="none" font-weight="none" font-size="none" text-anchor="none" style="mix-blend-mode: normal"><path d="M0,100v100h150h150v-100v-100h-150h-150v100M177.54648,30.33184c3.06348,1.46367 4.17617,3.69688 7.98906,16.03535c1.59512,5.16191 4.00078,12.40195 4.59199,13.82051c0.10195,0.24453 -0.18848,0.56953 -1.17754,1.31836c-0.72207,0.54668 -1.3752,0.99395 -1.45137,0.99395c-0.07598,0 -0.46797,-0.79512 -0.8707,-1.76699c-0.43477,-1.04883 -0.82324,-1.7291 -0.95566,-1.67363c-0.98223,0.41152 -5.39941,1.77578 -7.54727,2.33105c-4.19863,1.08555 -13.54941,2.85957 -13.79219,2.6168c-0.04824,-0.04824 0.07148,-0.5168 0.26582,-1.0416c0.27695,-0.74766 0.45781,-0.96738 0.83633,-1.01582c1.11719,-0.14355 9.62285,-1.8584 11.42051,-2.30273c2.31699,-0.57266 7.95469,-2.20586 8.24785,-2.38945c0.13242,-0.08301 -0.33867,-1.79629 -1.32422,-4.81621c-0.84121,-2.57812 -2.23711,-6.88477 -3.10195,-9.57031c-1.76387,-5.47773 -2.73555,-7.6291 -4.01191,-8.88184l-0.86582,-0.8498l-1.28789,1.15488c-1.61035,1.44414 -3.35781,2.68789 -4.1793,2.97422c-0.59453,0.20723 -0.5627,0.14727 0.57871,-1.09297c1.14746,-1.24668 2.01758,-2.43672 2.27832,-3.11621c0.10527,-0.27461 -0.11055,-0.29629 -1.91621,-0.19297c-1.11914,0.06387 -2.8998,0.3043 -3.95703,0.53398c-1.05723,0.22988 -1.95879,0.38125 -2.00332,0.33672c-0.04453,-0.04453 0.84238,-0.29277 1.9709,-0.55156c1.12871,-0.25898 2.05215,-0.53672 2.05215,-0.61719c0.0002,-0.08047 -0.06895,-0.14648 -0.15332,-0.14648c-0.23223,0 -0.18379,-0.78027 0.04883,-0.78711c0.11133,-0.00332 0.04844,-0.09551 -0.13945,-0.20508c-0.18789,-0.10957 -0.3418,-0.28262 -0.3418,-0.38477c0,-0.10195 0.15391,-0.19258 0.3418,-0.20098c0.20547,-0.00918 0.24414,-0.05488 0.09687,-0.11426c-0.13457,-0.0543 -1.65273,0.3043 -3.37344,0.79668c-1.72051,0.49258 -3.19238,0.88926 -3.2707,0.88184c-0.51836,-0.0502 5.33516,-1.78203 7.94531,-2.35078c2.50176,-0.54492 5.59336,-0.4248 7.05664,0.27441M164.74609,33.98438c-0.21484,0.09238 -0.52246,0.16777 -0.68359,0.16777c-0.18457,0 -0.14863,-0.06191 0.09766,-0.16777c0.21484,-0.09238 0.52246,-0.16777 0.68359,-0.16777c0.18457,0 0.14863,0.06191 -0.09766,0.16777M170.70313,36.71875c-0.17598,0.11367 -0.2002,0.19043 -0.06035,0.19238c0.12793,0.00156 0.28691,-0.08496 0.35332,-0.19238c0.1498,-0.24258 0.08223,-0.24258 -0.29297,0M176.7877,38.53242c1.48145,2.00527 3.07187,6.28516 4.05547,10.91348c0.39102,1.84063 0.91758,6.55371 0.75078,6.72051c-0.15723,0.15723 -2.46152,-4.89375 -3.06387,-6.71602c-0.33086,-1.00059 -0.78066,-2.7584 -0.99961,-3.90625c-0.77852,-4.07988 -1.15352,-5.49668 -1.77734,-6.71387c-0.34727,-0.67793 -0.65078,-1.34062 -0.67441,-1.47246c-0.08418,-0.47051 1.08965,0.33633 1.70898,1.17461M175.68086,38.19824c0.75039,1.10547 1.22637,2.60352 1.75508,5.52207c0.72949,4.02598 2.01543,8.07715 3.39355,10.69082l0.40332,0.76465l-0.00352,-0.87891c-0.0041,-1.00957 -0.70293,-5.03555 -0.7459,-4.29687l-0.02852,0.48828l-0.2791,-0.48828c-0.15352,-0.26855 -0.28223,-0.72305 -0.28613,-1.00996c-0.0043,-0.3332 -0.27148,-0.79238 -0.73926,-1.27109c-0.71719,-0.73398 -0.86641,-1.08105 -0.84512,-1.96699c0.00586,-0.2418 -0.06855,-0.43945 -0.16523,-0.43945c-0.09668,0 -0.14629,-0.15371 -0.11035,-0.3418c0.03594,-0.18809 0.07207,-0.89629 0.08027,-1.57402c0.00937,-0.76582 0.08867,-1.18672 0.20977,-1.11191c0.55215,0.34121 -1.19824,-3.03477 -2.07871,-4.00937c-0.87188,-0.96504 -1.19258,-1.00918 -0.56016,-0.07715M151.2877,44.34609c2.68242,0.93164 4.87695,1.3625 7.98965,1.56816c1.71875,0.11367 3.44668,0.15684 3.83984,0.0959l0.71504,-0.11074l0.14043,1.68613c0.23672,2.84277 -0.02109,8.50684 -0.48574,10.66836c-0.75488,3.51191 -2.29043,7.05723 -4.37383,10.09961c-1.48398,2.16699 -4.73867,5.32852 -7.20586,6.9998l-2.09687,1.42031l-1.51641,-1.01797c-6.80625,-4.56855 -10.45605,-10.00723 -12.17285,-18.13848c-0.35488,-1.68027 -0.45,-2.90156 -0.52715,-6.75977l-0.09414,-4.70898l3.39258,-0.11426c3.6498,-0.12305 5.72578,-0.46328 8.95918,-1.46836c1.02051,-0.31719 1.95156,-0.58652 2.06895,-0.59863c0.11758,-0.01211 0.73281,0.1584 1.36719,0.37891M179.70293,46.59824c0.00937,0.22754 0.05566,0.27383 0.11797,0.11816c0.05645,-0.14102 0.04941,-0.30957 -0.01543,-0.37441c-0.06484,-0.06484 -0.11094,0.05039 -0.10254,0.25625M147.75391,47.30703c-2.10273,0.78047 -4.64062,1.29316 -7.17773,1.45l-2.09961,0.12988v2.41973c0,9.40156 2.8791,15.42813 9.53281,19.95449l1.81797,1.23672l0.81875,-0.53965c2.34199,-1.54395 5.28418,-4.3248 6.5666,-6.20645c1.00977,-1.48164 2.2957,-4.20566 2.73867,-5.80137c0.84746,-3.05254 1.34277,-7.50195 1.09395,-9.82598l-0.13379,-1.24805l-1.59824,-0.12773c-2.86777,-0.2291 -4.45605,-0.53047 -6.88145,-1.30586c-1.3127,-0.41973 -2.55078,-0.75234 -2.75117,-0.73945c-0.20039,0.01309 -1.06738,0.28477 -1.92676,0.60371M179.50762,47.37949c0.00937,0.22754 0.05566,0.27383 0.11797,0.11816c0.05645,-0.14102 0.04941,-0.30957 -0.01543,-0.37441c-0.06484,-0.06484 -0.11094,0.05039 -0.10254,0.25625M180.09355,48.16074c0.00937,0.22754 0.05566,0.27383 0.11797,0.11816c0.05645,-0.14102 0.04941,-0.30957 -0.01543,-0.37441c-0.06484,-0.06484 -0.11094,0.05039 -0.10254,0.25625M180.28887,49.1373c0.00937,0.22754 0.05566,0.27383 0.11797,0.11816c0.05645,-0.14102 0.04941,-0.30957 -0.01543,-0.37441c-0.06484,-0.06484 -0.11094,0.05039 -0.10254,0.25625M135.80625,51.26953c0.00098,0.75195 0.03613,1.03555 0.07852,0.63047c0.04219,-0.40527 0.0416,-1.02051 -0.00156,-1.36719c-0.04316,-0.34687 -0.07773,-0.01523 -0.07695,0.73672M153.56973,51.96484c0.40586,0.1127 1.03398,0.46484 1.3959,0.78262c1.99141,1.74863 1.69512,5.89824 -0.52637,7.36992c-0.71914,0.47637 -0.99902,0.53359 -2.91055,0.59316l-2.11465,0.06621v3.79121c0,2.08535 -0.06582,3.78652 -0.14648,3.78066c-0.08066,-0.00605 -0.73984,-0.71172 -1.46484,-1.56816l-1.31836,-1.55723l-0.01191,-5.80488l-0.01191,-5.80508l-0.81699,-0.59336c-0.44922,-0.32637 -0.8459,-0.74375 -0.88125,-0.92773c-0.05918,-0.30703 0.26816,-0.33438 4.00273,-0.3332c2.23691,0.00059 4.39902,0.09316 4.80469,0.20586M136.05332,54.78516c0.09121,1.46895 0.60195,4.29629 0.64551,3.57402c0.01094,-0.18262 -0.06934,-0.75391 -0.17852,-1.26953c-0.10898,-0.51543 -0.28066,-1.59648 -0.38125,-2.40215l-0.18281,-1.46484l0.09707,1.5625M149.40293,54.03516c-0.04492,0.66367 0.04902,4.66172 0.11094,4.72363c0.21406,0.21387 3.06191,-0.22988 3.44004,-0.53613c0.75039,-0.60742 0.84141,-3.16699 0.13672,-3.83516c-0.29512,-0.27969 -3.6707,-0.60215 -3.6877,-0.35234M117.15879,57.98867c3.2,1.18633 6.41211,2.02285 11.69141,3.04434c2.55527,0.49434 4.9457,0.9623 5.31191,1.03965c0.58945,0.12461 0.70605,0.2584 1.01348,1.16289c0.19121,0.5623 0.28691,1.02227 0.21289,1.02207c-0.25215,-0.0002 -6.5748,-1.14551 -8.04473,-1.45723c-4.22969,-0.89687 -9.80488,-2.61875 -12.29961,-3.79844l-1.10605,-0.52305l0.27656,-0.82969c0.19102,-0.57344 0.3459,-0.77598 0.50156,-0.65605c0.12383,0.09551 1.22305,0.54336 2.44258,0.99551M114.39629,57.7625c-0.05645,0.29492 -0.06523,0.59629 -0.01973,0.67012c0.12168,0.19687 4.00117,1.69121 6.03359,2.32402c3.3584,1.04551 9.94434,2.50879 10.18926,2.26367c0.05527,-0.05527 -0.325,-0.1666 -0.84512,-0.24746c-0.81367,-0.12637 -0.87754,-0.1666 -0.45742,-0.28809c0.42129,-0.12168 0.43242,-0.14375 0.08145,-0.16055c-0.72969,-0.03496 -0.71875,-0.30781 0.0207,-0.51797c0.69707,-0.19805 0.6291,-0.225 -1.88672,-0.74805c-4.85957,-1.01035 -8.46641,-2.0377 -11.68027,-3.32715c-0.6916,-0.27734 -1.27461,-0.50449 -1.29551,-0.50449c-0.0209,0 -0.08398,0.24121 -0.14023,0.53594M136.71875,58.89023c0,0.3209 0.64121,2.44766 0.71563,2.37344c0.08828,-0.08828 -0.46719,-2.29141 -0.61504,-2.43906c-0.05527,-0.05527 -0.10059,-0.02578 -0.10059,0.06562M138.76348,60.46133c0.1498,0.49785 0.33633,0.9625 0.41445,1.03242c0.07813,0.07012 0.07793,-0.04844 -0.00039,-0.26328c-0.07832,-0.21484 -0.1916,-0.63418 -0.25156,-0.93184c-0.06016,-0.29766 -0.18262,-0.58652 -0.27207,-0.6418c-0.08965,-0.05527 -0.04023,0.30664 0.10957,0.80449M137.5,61.58125c0,0.25 0.82207,2.31035 0.89336,2.23887c0.04062,-0.04062 -0.10742,-0.55195 -0.3293,-1.13652c-0.38672,-1.01914 -0.56406,-1.36563 -0.56406,-1.10234M130.41992,61.84805c0.13437,0.0543 0.3541,0.0543 0.48828,0c0.13437,-0.0541 0.02441,-0.09844 -0.24414,-0.09844c-0.26855,0 -0.37832,0.04434 -0.24414,0.09844M192.06328,65.13203c0.71289,1.87734 1.29609,3.47832 1.29609,3.55781c0,0.19531 -1.80098,2.01328 -1.99453,2.01328c-0.08477,0 -0.15391,-0.22246 -0.15391,-0.49453c0,-0.5373 -0.57734,-2.36797 -1.21934,-3.86602c-0.33984,-0.79277 -0.46895,-0.92383 -0.81309,-0.82461c-0.8625,0.24883 -2.58652,0.6623 -3.24102,0.77715c-0.63809,0.11191 -0.65684,0.10117 -0.28203,-0.16211c0.22109,-0.15508 0.52871,-0.275 0.68359,-0.2666c0.15508,0.00859 0.50176,0.0002 0.77031,-0.01836c0.38672,-0.02676 0.42773,-0.07207 0.19687,-0.21797c-0.1832,-0.11582 -0.36074,-0.11465 -0.47852,0.00313c-0.10293,0.10293 -0.26875,0.18711 -0.36855,0.18711c-0.19121,0 3.98105,-4.07676 4.18809,-4.09258c0.06602,-0.00488 0.70332,1.52695 1.41602,3.4043M131.6041,62.04746c0.14082,0.05645 0.30938,0.04941 0.37422,-0.01543c0.06484,-0.06484 -0.05039,-0.11094 -0.25625,-0.10254c-0.22754,0.00938 -0.27383,0.05566 -0.11797,0.11797M131.01816,63.21934c0.14082,0.05645 0.30938,0.04941 0.37422,-0.01543c0.06484,-0.06484 -0.05039,-0.11094 -0.25625,-0.10254c-0.22754,0.00938 -0.27383,0.05566 -0.11797,0.11797M132.19004,63.41465c0.14082,0.05645 0.30938,0.04941 0.37422,-0.01543c0.06484,-0.06484 -0.05039,-0.11094 -0.25625,-0.10254c-0.22754,0.00938 -0.27383,0.05566 -0.11797,0.11797M138.47656,64.14902c0,0.24355 1.22207,2.46738 1.3084,2.38105c0.04316,-0.04316 -0.19902,-0.59414 -0.53828,-1.22422c-0.6627,-1.23125 -0.77012,-1.39238 -0.77012,-1.15684M140.68047,64.75977c1.22383,3.08926 5.29727,7.38164 8.47402,8.92949l0.81445,0.39688l1.39961,-0.95625c0.76992,-0.52598 1.44766,-1.03418 1.50645,-1.1291c0.05879,-0.09512 -0.57988,0.29063 -1.41934,0.85703l-1.52617,1.02988l-0.79492,-0.42324c-2.54043,-1.35293 -5.75938,-4.44746 -7.28652,-7.00508c-1.35703,-2.27246 -1.44609,-2.40215 -1.16758,-1.69961M203.93438,68.60566c6.51953,2.36582 9.24707,4.08613 10.00488,6.31055c0.41426,1.21523 0.40215,1.60371 -0.09102,2.92168c-1.02402,2.73711 -5.30527,5.87656 -11.40684,8.36445c-10.12734,4.12949 -22.32051,6.5877 -41.50391,8.36699c-3.68223,0.3416 -21.90879,0.34238 -25.19531,0.00117c-4.38496,-0.45527 -11.71543,-1.41016 -14.62832,-1.90547c-13.74473,-2.33691 -24.84766,-6.01855 -31.02129,-10.28633c-4.27871,-2.95801 -5.46797,-6.42109 -3.06309,-8.91934c0.47676,-0.49551 0.8123,-0.74688 0.74551,-0.55898c-0.0668,0.18789 -0.1918,0.3418 -0.27754,0.3418c-0.32871,0 0.3418,2.43105 1.03965,3.77012c1.98926,3.81641 9.57227,7.78027 21.32617,11.14824c14.52129,4.16074 31.19766,5.7498 48.4375,4.61523c21.30293,-1.40176 39.79219,-6.00039 48.72559,-12.11895c2.975,-2.0377 4.5793,-4.13379 4.22969,-5.52637c-0.37754,-1.50449 -3.3043,-3.12168 -9.07129,-5.0125c-3.79922,-1.24551 -5.62383,-1.5916 -2.67305,-0.50703c2.99941,1.10273 5.98145,2.49766 7.47617,3.49727c0.78789,0.52715 1.39785,0.99297 1.35527,1.03555c-0.04258,0.04258 -0.99238,-0.35352 -2.11055,-0.88027c-2.51211,-1.18301 -8.10547,-3.61797 -9.55293,-4.15859c-0.59082,-0.22051 -1.17305,-0.50059 -1.29395,-0.62207c-0.1209,-0.12168 -0.44004,-0.88926 -0.70938,-1.70605l-0.48945,-1.48477l2.85762,0.9252c1.57187,0.50879 4.67227,1.58359 6.88984,2.38848M140.03906,67.1875c0.11504,0.21484 0.25293,0.39063 0.30664,0.39063c0.05371,0 0.00371,-0.17578 -0.11133,-0.39062c-0.11504,-0.21484 -0.25293,-0.39062 -0.30664,-0.39062c-0.05371,0 -0.00371,0.17578 0.11133,0.39063M140.81445,68.34844c0.11191,0.20898 0.2998,0.43945 0.41777,0.5123c0.11797,0.07305 0.06348,-0.09785 -0.12109,-0.37969c-0.39102,-0.59668 -0.59336,-0.68711 -0.29668,-0.13262M142.1875,70.05059c0,0.10664 0.2416,0.40684 0.53711,0.66738l0.53711,0.47344l-0.48828,-0.58594c-0.26855,-0.32227 -0.51016,-0.62246 -0.53711,-0.66738c-0.02695,-0.04473 -0.04883,0.00586 -0.04883,0.1125M154.18066,70.75195l-0.37207,0.43945l0.43945,-0.37207c0.41289,-0.34961 0.52832,-0.50684 0.37207,-0.50684c-0.03711,0 -0.23477,0.19766 -0.43945,0.43945M143.94531,71.97266c0.36445,0.37598 0.70645,0.68359 0.76016,0.68359c0.05371,0 -0.20039,-0.30762 -0.56484,-0.68359c-0.36445,-0.37598 -0.70645,-0.68359 -0.76016,-0.68359c-0.05371,0 0.20039,0.30762 0.56484,0.68359M204.27285,72.07031c0.88867,0.42969 1.675,0.77695 1.74746,0.77168c0.23652,-0.01738 -2.78945,-1.5334 -3.08027,-1.54336c-0.15547,-0.00527 0.44434,0.34199 1.33281,0.77168M206.25,72.93555c0,0.05371 0.17578,0.1916 0.39063,0.30664c0.21484,0.11504 0.39063,0.16504 0.39063,0.11133c0,-0.05371 -0.17578,-0.1916 -0.39062,-0.30664c-0.21484,-0.11504 -0.39062,-0.16504 -0.39062,-0.11133M86.64766,74.25352c-0.39297,0.67051 -0.53242,1.17793 -0.5418,1.97227c-0.0457,3.82051 4.94844,7.53848 15.04043,11.19687c1.00645,0.36484 1.88535,0.65977 1.95313,0.65547c0.22441,-0.01406 -1.2957,-0.71953 -1.85059,-0.85879c-0.42754,-0.10742 -0.48398,-0.17598 -0.26211,-0.31875c0.2457,-0.15801 0.24434,-0.20723 -0.01016,-0.37422c-0.26348,-0.17285 -0.14277,-0.28242 0.24414,-0.22129c0.08066,0.0127 0.14648,-0.06484 0.14648,-0.17227c0,-0.10742 0.08789,-0.19531 0.19531,-0.19531c0.23652,0 0.17305,0.42461 -0.09766,0.65312c-0.11191,0.09453 -0.03887,0.11406 0.17129,0.04551c0.20156,-0.06563 0.48926,-0.01758 0.63926,0.10684c0.21895,0.18184 0.24766,0.16133 0.1457,-0.1041c-0.10625,-0.27734 -0.03613,-0.31191 0.43516,-0.21445c0.30898,0.06367 -0.58086,-0.35703 -1.97734,-0.93516c-6.80254,-2.81621 -11.17187,-5.73809 -12.63125,-8.44648c-0.28711,-0.53262 -0.64551,-1.58125 -0.79648,-2.33027l-0.27461,-1.36152l-0.52891,0.90254M206.22754,77.7041c-2.41836,1.8709 -8.03633,4.78828 -12.77051,6.63184c-10.8166,4.2123 -27.01055,6.75215 -43.16406,6.76992c-5.61074,0.00625 -14.59492,-0.38516 -13.86719,-0.6041c0.10742,-0.03242 3.71094,-0.32637 8.00781,-0.65352c21.07402,-1.60391 26.6918,-2.25039 36.71875,-4.22578c8.99219,-1.77148 17.94844,-4.58047 23.53516,-7.38145c1.87344,-0.93926 2.21309,-1.05762 1.54004,-0.53691M100.81055,85.83984c0,0.10195 -0.09453,0.21699 -0.20996,0.25547c-0.11543,0.03848 -0.20996,-0.07637 -0.20996,-0.25547c0,-0.1791 0.09453,-0.29395 0.20996,-0.25547c0.11543,0.03848 0.20996,0.15352 0.20996,0.25547M99.93496,86.39902c0,0.17129 -0.14141,0.2291 -0.39648,0.1625c-0.3877,-0.10137 -0.38809,-0.10703 -0.01621,-0.25254c0.20898,-0.08184 0.3875,-0.15488 0.39629,-0.1625c0.00898,-0.00742 0.01641,0.10605 0.01641,0.25254M175.74473,87.04746c0.14082,0.05645 0.30938,0.04941 0.37422,-0.01543c0.06484,-0.06484 -0.05039,-0.11094 -0.25625,-0.10254c-0.22754,0.00938 -0.27383,0.05566 -0.11797,0.11797M174.37754,87.24277c0.14082,0.05645 0.30938,0.04941 0.37422,-0.01543c0.06484,-0.06484 -0.05039,-0.11094 -0.25625,-0.10254c-0.22754,0.00938 -0.27383,0.05566 -0.11797,0.11797M171.875,87.50605c-4.07305,0.56895 -12.47246,1.40859 -19.43359,1.94297c-7.61406,0.58438 -13.1793,1.05 -13.13047,1.09863c0.15215,0.15137 7.30156,0.36758 11.66562,0.35273c7.21855,-0.0248 15.76328,-0.71523 21.67969,-1.75176c1.4502,-0.2541 2.16758,-0.41738 1.59434,-0.3627c-0.7084,0.06738 -1.00137,0.03262 -0.91426,-0.1082c0.07051,-0.11426 0.19219,-0.16797 0.27051,-0.11953c0.07832,0.04824 0.26992,0.00215 0.42598,-0.10273c0.22871,-0.15352 0.21172,-0.17949 -0.08672,-0.13359c-0.20371,0.03145 -0.40879,-0.05273 -0.45586,-0.18711c-0.04687,-0.13418 0.00723,-0.24414 0.12012,-0.24414c0.11309,0 0.15488,-0.13184 0.09316,-0.29297c-0.12109,-0.31523 -0.2002,-0.31914 -1.82852,-0.0916M176.9166,88.41465c0.14082,0.05645 0.30938,0.04941 0.37422,-0.01543c0.06484,-0.06484 -0.05039,-0.11094 -0.25625,-0.10254c-0.22754,0.00938 -0.27383,0.05566 -0.11797,0.11797M175.63848,88.61191c0.19004,0.04961 0.45371,0.04629 0.58594,-0.00723c0.13223,-0.05352 -0.02324,-0.09395 -0.34551,-0.09004c-0.32227,0.00391 -0.43047,0.04766 -0.24043,0.09727M118.55469,93.31055c0,0.08066 0.12793,0.7584 0.28437,1.50605c0.15645,0.74766 0.25254,1.39121 0.21348,1.43027c-0.14688,0.14688 -1.27559,-0.56309 -1.46855,-0.92363c-0.27344,-0.51094 -0.2541,-1.6375 0.0332,-1.9248c0.25742,-0.25742 0.9375,-0.32109 0.9375,-0.08789M182.18926,94.0998c0.05312,0.73457 -0.02285,0.92129 -0.61523,1.51367c-0.78789,0.78789 -1.21289,0.88613 -1.02129,0.23613c0.07129,-0.2418 0.18203,-0.94941 0.24609,-1.57285c0.11621,-1.1291 0.11895,-1.13301 0.72344,-1.07422c0.56406,0.05508 0.61094,0.11797 0.66699,0.89727M117.59199,94.43359c0,0.10742 0.12559,0.41504 0.2791,0.68359c0.15352,0.26855 0.2791,0.40039 0.2791,0.29297c0,-0.10742 -0.12559,-0.41504 -0.2791,-0.68359c-0.15352,-0.26855 -0.2791,-0.40039 -0.2791,-0.29297M193.98672,100.3418c1.07109,0.94004 2.54219,2.19238 3.26895,2.7832c6.60996,5.37324 7.85371,6.42617 12.92012,10.9375c0.42227,0.37598 0.76641,0.78906 0.76465,0.91797c-0.00156,0.12891 -0.77187,0.87266 -1.71191,1.65254c-5.35586,4.44395 -11.53477,10.25801 -16.05293,15.10527l-1.82051,1.95313l1.7666,-2.05078c0.97148,-1.12793 3.61504,-3.8793 5.87441,-6.11406c2.25938,-2.23496 4.11895,-4.12461 4.13223,-4.19922c0.0498,-0.27598 0.64004,-0.80723 0.79238,-0.71289c0.08652,0.05352 0.47227,-0.1791 0.85684,-0.5168c0.59141,-0.51914 0.66211,-0.66328 0.45762,-0.93203c-0.13301,-0.1748 -0.16484,-0.25273 -0.0709,-0.17324c0.09395,0.07969 0.27969,0.05469 0.4125,-0.05566c0.13281,-0.11016 0.31699,-0.17539 0.40937,-0.14473c0.20293,0.06719 4.49746,-3.3584 4.64102,-3.70215c0.14434,-0.34512 -3.69121,-3.7752 -10.37832,-9.28145c-7.59141,-6.25059 -7.15957,-5.91641 -6.20371,-4.80469c1.00371,1.16719 4.89082,5.57246 5.53398,6.27168c0.27168,0.29551 0.44609,0.53711 0.3877,0.53711c-0.13262,0 -6.02227,-6.53555 -7.26035,-8.05664c-0.50273,-0.61777 -0.85859,-1.12305 -0.79082,-1.12305c0.06797,0 0.9998,0.76914 2.07109,1.70898M119.69355,99.20723c0.35957,0.09453 0.59043,0.47871 1.09766,1.82715c0.74238,1.97383 1.68438,3.59277 3.1834,5.47148c1.99258,2.49746 3.56562,3.2502 7.12031,3.40703c3.95684,0.17461 9.56113,-0.47676 13.05547,-1.51738c0.76719,-0.22852 1.44043,-0.36992 1.4959,-0.31426c0.05566,0.05566 -0.09043,0.73223 -0.3248,1.50352c-0.30059,0.99004 -0.83242,1.99277 -1.80781,3.40996c-0.83066,1.20664 -1.33691,2.12539 -1.26875,2.30273c0.22109,0.57637 7.01309,6.38633 7.45703,6.37891c0.26875,-0.00449 6.54805,-4.67207 6.54805,-4.86738c0,-0.08418 -0.37363,-0.08047 -0.83008,0.00859c-4.04434,0.78848 -5.7127,0.82715 -7.93418,0.18359c-1.33066,-0.38535 -1.59121,-0.69102 -1.55117,-1.82012l0.03613,-1.0209l0.07227,1.03984c0.06719,0.96816 0.11719,1.05859 0.72598,1.31289c0.35957,0.15039 1.03594,0.3168 1.50293,0.36973c0.46699,0.05312 0.69434,0.04902 0.50508,-0.00938c-0.18926,-0.0582 -0.29863,-0.17988 -0.24277,-0.27012c0.05586,-0.09023 0.01855,-0.38223 -0.08281,-0.64863c-0.10137,-0.2666 -0.13574,-0.5332 -0.07656,-0.59238c0.05937,-0.05918 0.11699,-0.6834 0.12832,-1.3873c0.01133,-0.70371 0.06719,-1.28027 0.12402,-1.28125c0.05684,-0.00098 0.12363,-0.56465 0.14863,-1.25234c0.05508,-1.52266 0.95059,-4.8418 1.0582,-3.92168c0.04219,0.36152 0.19941,-0.19941 0.41074,-1.46484c0.36484,-2.18496 0.4168,-2.90059 0.16387,-2.25312c-0.11895,0.3043 -0.17715,0.21348 -0.28164,-0.43945c-0.10781,-0.67441 -0.2082,-0.82305 -0.55605,-0.82305c-0.23359,0 -0.63965,0.19785 -0.90234,0.43945l-0.47773,0.43945l0.26992,-0.44668c0.31133,-0.51562 0.93555,-0.72344 1.64121,-0.54629c0.51934,0.13027 2.23555,2.55039 2.17539,3.06738c-0.03809,0.32891 1.84434,5.29473 1.9625,5.17656c0.04629,-0.04629 -0.02812,-0.64199 -0.16523,-1.32383c-0.1373,-0.68184 -0.28418,-1.07285 -0.32656,-0.86895c-0.05,0.24121 -0.24414,-0.06543 -0.55625,-0.87891c-0.26348,-0.6873 -0.56836,-1.41191 -0.67715,-1.61035c-0.33848,-0.61699 -0.03301,-0.58008 0.43457,0.05254c0.54766,0.74043 2.34219,2.16445 3.41543,2.70996c1.57578,0.80098 3.88105,1.07012 9.3582,1.09277l5.07813,0.02109l1.29805,-0.63711c2.48457,-1.21934 5.8168,-5.54414 6.79844,-8.82363c0.33379,-1.11543 0.35859,-1.13379 1.94141,-1.44551l0.66309,-0.13047l-0.11406,1.22148c-0.19023,2.03457 -0.71641,4.27949 -1.29883,5.54082c-0.58965,1.27637 -1.18516,1.85137 -3.15254,3.04336l-1.1916,0.72187l-0.84023,2.50078c-1.45527,4.33086 -2.85684,7.51836 -3.97617,9.04258c-1.37402,1.8709 -5.82422,7.03027 -11.41406,13.2334l-2.50801,2.7832l-7.26309,-0.0002l-7.26289,-0.00039l-1.95312,-2.18594c-1.07422,-1.20215 -3.26426,-3.64102 -4.8668,-5.41953c-4.60293,-5.1084 -6.98906,-7.94043 -7.77754,-9.23105c-0.75781,-1.24023 -1.66992,-3.46563 -3.06562,-7.4793c-0.44824,-1.28906 -0.90215,-2.56934 -1.00859,-2.84492c-0.1123,-0.29102 -0.66113,-0.78223 -1.30781,-1.17129c-1.6334,-0.98203 -2.67461,-2.01582 -3.15488,-3.13242c-0.45645,-1.06074 -1.06895,-3.67617 -1.2875,-5.49746l-0.13477,-1.12266l0.65723,0.1293c0.36152,0.07129 0.86211,0.1832 1.1125,0.24902M118.35957,99.75586c0.00059,0.90391 0.55996,3.77813 0.98281,5.04883c0.46191,1.3877 1.33633,2.34883 3.31387,3.64238c1.20996,0.79121 1.2916,0.89453 1.7375,2.19746c2.12148,6.19941 3.27266,8.92598 4.35469,10.31426c1.65215,2.11973 3.74355,4.41152 3.92402,4.3c0.1123,-0.06934 0.1416,-0.02852 0.06641,0.09277c-0.07383,0.11973 0.32187,0.72363 0.88379,1.34863c3.05488,3.39727 4.52813,4.92344 4.66914,4.83633c0.08672,-0.05371 0.22129,0.00527 0.29902,0.13105c0.08828,0.14277 0.05684,0.17637 -0.08398,0.08926c-0.53848,-0.33262 -0.0957,0.24121 1.87402,2.4291l2.09961,2.33223l2.63672,-0.03516l2.63672,-0.03516l-1.95312,-0.10879c-1.39648,-0.07754 -1.8418,-0.15918 -1.5625,-0.28613c0.21484,-0.09766 0.60605,-0.1748 0.86934,-0.17148l0.47891,0.00625l-0.4082,-0.31699c-0.22441,-0.17422 -0.6377,-0.48301 -0.91816,-0.68594c-0.47363,-0.34277 -0.75039,-0.87656 -0.31484,-0.60742c0.10742,0.06641 0.19531,-0.02148 0.19531,-0.19531c0,-0.17383 -0.08789,-0.26172 -0.19531,-0.19531c-0.11055,0.06836 -0.2082,-0.11758 -0.225,-0.42793c-0.0498,-0.9166 -0.06699,-1.00352 -0.2332,-1.16953c-0.08809,-0.08828 -0.32871,-0.17129 -0.53457,-0.18477c-0.68555,-0.04473 -0.76504,-0.07207 -0.76504,-0.2625c0,-0.10391 0.11406,-0.14531 0.25352,-0.0918c0.13945,0.05352 0.46895,-0.13926 0.73242,-0.42832c0.26348,-0.28906 0.36523,-0.45977 0.22617,-0.37949c-0.13887,0.08027 -0.36172,0.05547 -0.49492,-0.05508c-0.1332,-0.11055 -0.41504,-0.16875 -0.62617,-0.12949c-0.21113,0.03945 -0.42793,0.07969 -0.48164,0.08965c-0.05371,0.00977 0.03184,0.0998 0.19023,0.2c0.18496,0.11699 0.33398,0.10703 0.41758,-0.02812c0.07129,-0.11543 0.22754,-0.14961 0.34687,-0.07578c0.39316,0.24297 0.22676,0.44902 -0.31484,0.38965c-0.29258,-0.03223 -0.63281,0.0252 -0.75605,0.12754c-0.3834,0.31816 -0.21621,-0.65527 0.18125,-1.05508c0.39941,-0.40156 0.29141,-0.70449 -0.12734,-0.35684c-0.21016,0.17441 -0.31699,0.11172 -0.50234,-0.29492c-0.24785,-0.54414 -0.00488,-1.09961 0.27988,-0.63926c0.09648,0.15645 0.06973,0.19297 -0.07559,0.10312c-0.12402,-0.07656 -0.22559,-0.04609 -0.22559,0.06758c0,0.11367 0.09316,0.20684 0.20684,0.20684c0.11367,0 0.14414,0.10156 0.06758,0.22559c-0.08223,0.13281 -0.0541,0.17266 0.06855,0.09687c0.11445,-0.0709 0.1834,-0.28223 0.15332,-0.46973c-0.03027,-0.1875 0.01992,-0.48613 0.11152,-0.66328c0.11367,-0.22031 0.07539,-0.35723 -0.1207,-0.43242c-0.15801,-0.06055 -0.27773,-0.04746 -0.26641,0.0293c0.05762,0.38613 -0.06191,0.3959 -0.42305,0.03477c-0.22031,-0.22031 -0.50371,-0.33613 -0.63477,-0.25957c-0.13047,0.07617 -0.06133,-0.06738 0.15352,-0.31895c0.34121,-0.39941 0.34746,-0.44141 0.04824,-0.33242c-0.31875,0.11621 -0.32109,0.09219 -0.03359,-0.34648c0.20625,-0.31484 0.54727,-0.50137 1.02617,-0.56113c0.39434,-0.04941 -0.00586,-0.06895 -0.88926,-0.04355l-1.60645,0.04609l0.0709,-0.60215c0.03887,-0.33125 0.08066,-0.66602 0.09258,-0.74414c0.05195,-0.33809 1.16367,-0.84512 2.35098,-1.07227l1.28418,-0.2457l-1.1375,0.09863c-0.62559,0.0543 -1.46504,0.26582 -1.86543,0.46992l-0.72793,0.37148l-0.04219,-0.62598c-0.03887,-0.57617 0.0084,-0.62988 0.59277,-0.67441c0.34922,-0.02656 0.72422,-0.14609 0.8334,-0.26582c0.14043,-0.15391 0.10801,-0.18594 -0.11074,-0.10977c-0.1834,0.06406 -0.30938,-0.0002 -0.30938,-0.15781c0,-0.14629 0.06406,-0.22617 0.14238,-0.17793c0.22539,0.13945 0.41172,-0.54062 0.20488,-0.74746c-0.10254,-0.10254 -0.13457,-0.32168 -0.07109,-0.48711c0.08594,-0.22402 0.01758,-0.275 -0.26895,-0.2c-0.27363,0.07148 -0.3918,-0.00254 -0.41113,-0.25781c-0.01484,-0.19687 0.07031,-0.41816 0.18926,-0.4916c0.13457,-0.0834 0.17383,-0.02344 0.10371,0.15879c-0.0668,0.17422 -0.00117,0.29258 0.16211,0.29258c0.15098,0 0.27441,-0.10781 0.27441,-0.23965c0,-0.2793 -0.54004,-0.52793 -0.79883,-0.36797c-0.09785,0.06035 -0.17773,-0.11523 -0.17773,-0.39004c0,-0.2748 -0.09316,-0.4998 -0.20684,-0.4998c-0.11367,0 -0.14414,0.10156 -0.06758,0.22559c0.08359,0.13516 0.05391,0.17246 -0.07402,0.09336c-0.11738,-0.07246 -0.31348,0.02383 -0.43555,0.21406c-0.17676,0.2752 -0.20215,0.28086 -0.125,0.02793c0.05352,-0.175 -0.00137,-0.4166 -0.12187,-0.53711c-0.16074,-0.16074 -0.16094,-0.21914 -0.00098,-0.21914c0.11992,0 0.2623,0.10996 0.3166,0.24414c0.0541,0.13437 0.10547,0.04336 0.11387,-0.20215c0.01387,-0.40313 -0.02715,-0.42363 -0.42402,-0.2123c-0.2416,0.12871 -0.52832,0.35469 -0.63711,0.50195c-0.1668,0.22617 -0.25684,0.22441 -0.5793,-0.01152c-0.33496,-0.24473 -0.41387,-0.23965 -0.64199,0.04219c-0.16777,0.20703 -0.15273,0.09922 0.04238,-0.30371c0.36563,-0.75605 0.38711,-1.10117 0.0582,-0.93457c-0.13418,0.06797 -0.09121,-0.00176 0.0959,-0.15508c0.32246,-0.26465 0.32168,-0.29531 -0.01543,-0.60039c-0.19551,-0.17695 -0.50234,-0.32168 -0.68184,-0.32168c-0.17949,0 -0.32637,-0.07324 -0.32637,-0.1627c0,-0.37285 0.78535,-0.05957 1.58477,0.63223c0.47129,0.40762 0.70273,0.69121 0.51484,0.63027c-0.47168,-0.15312 -0.4291,0.01172 0.07246,0.28008c0.23047,0.12324 0.36094,0.13535 0.29395,0.02734c-0.06602,-0.10703 -0.00527,-0.23848 0.13477,-0.29219c0.14023,-0.05391 0.3584,-0.44316 0.48496,-0.86543c0.12637,-0.42227 0.65859,-1.37793 1.18242,-2.12402c0.74629,-1.0625 1.06855,-1.36602 1.48789,-1.40059c0.3625,-0.03008 0.50313,0.03437 0.43574,0.19922c-0.47617,1.16465 -0.44922,1.18125 0.25762,0.15957c0.25488,-0.36836 0.34844,-0.59883 0.20801,-0.51211c-0.19961,0.12344 -0.23965,-0.03926 -0.18359,-0.7459c0.03965,-0.49727 0.02305,-0.90391 -0.03672,-0.90391c-0.05977,0 -0.075,-0.28906 -0.03359,-0.64238c0.06055,-0.52012 0.16738,-0.65 0.56094,-0.68262c0.58672,-0.04844 1.51445,-0.62812 1.00547,-0.62812c-0.17617,0 -0.36445,0.10996 -0.41875,0.24414c-0.07266,0.18027 -0.10254,0.17402 -0.11387,-0.02383c-0.01309,-0.22734 -0.06758,-0.22734 -0.35723,0c-0.30371,0.23809 -0.31426,0.23281 -0.09531,-0.04785c0.20313,-0.26016 0.18789,-0.36367 -0.08633,-0.58594c-0.21914,-0.17793 -0.28301,-0.1873 -0.18711,-0.02754c0.08027,0.1334 0.05586,0.39707 -0.0541,0.58594c-0.17168,0.29453 -0.20098,0.26699 -0.20605,-0.19375c-0.01152,-1.04844 -0.29922,-0.51543 -0.32422,0.60059c-0.0291,1.30703 -0.23691,1.76426 -1.92617,4.23848c-0.6709,0.98242 -1.32656,2.11016 -1.45723,2.50605l-0.2375,0.71992l-2.0623,-1.90859c-2.05176,-1.89844 -4.15469,-4.20488 -4.15469,-4.55625c0,-0.10137 0.2082,-0.18418 0.4627,-0.18418c1.17578,0 9.42344,-1.7502 8.96602,-1.90273c-0.10137,-0.03379 -1.38223,0.20645 -2.84609,0.53379c-3.05391,0.68281 -6.2873,1.1998 -6.64492,1.0625c-0.28535,-0.10937 -0.39668,0.63184 -0.12051,0.80234c0.31914,0.19727 0.19687,0.47285 -0.15898,0.3584c-0.27871,-0.08965 -0.28945,-0.07285 -0.0582,0.09102c0.15605,0.11035 0.33926,0.16641 0.40723,0.12441c0.06777,-0.0418 0.5334,0.3582 1.03457,0.88926c0.94043,0.99648 1.26113,1.5627 0.45742,0.80762c-0.24961,-0.23457 -0.5207,-0.35977 -0.60234,-0.27813c-0.08145,0.08145 -0.13047,0.06035 -0.10879,-0.04707c0.08398,-0.41641 -0.02148,-0.49414 -0.39746,-0.29297c-0.31465,0.16836 -0.39062,0.14844 -0.39062,-0.10234c0,-0.17129 0.08789,-0.25703 0.19531,-0.19062c0.10742,0.06641 0.19531,0.03711 0.19531,-0.06523c0,-0.10234 -0.13633,-0.23828 -0.30313,-0.30234c-0.17383,-0.0666 -0.25215,-0.03379 -0.18379,0.07676c0.15156,0.24531 -0.10859,0.24414 -0.48965,-0.00215c-0.23008,-0.14863 -0.23555,-0.19004 -0.025,-0.19238c0.22187,-0.00234 0.22422,-0.05605 0.0127,-0.31074c-0.15117,-0.18203 -0.18086,-0.36172 -0.07285,-0.43945c0.23828,-0.17148 0.28828,-0.81523 0.06348,-0.81523c-0.27109,0 -0.20371,-0.58301 0.07051,-0.60898c0.13437,-0.0127 -0.01953,-0.09023 -0.3418,-0.17227c-0.46895,-0.11934 -0.34531,-0.15371 0.61855,-0.17227c0.79902,-0.01523 1.2377,0.05918 1.30352,0.22109c0.07813,0.19297 0.13477,0.19375 0.26973,0.00352c0.09395,-0.13242 0.78184,-0.31738 1.52852,-0.41113c1.13711,-0.14258 0.81836,-0.16934 -1.9625,-0.16543c-3.4666,0.00508 -4.5377,-0.15039 -6.10273,-0.88613c-1.22324,-0.575 -2.9627,-2.35273 -4.28145,-4.37578c-1.06777,-1.63809 -2.40879,-4.43574 -2.40879,-5.025c0,-0.18418 -0.28789,-0.3832 -0.73242,-0.50664c-1.0082,-0.28008 -1.02539,-0.27461 -1.0252,0.33145M149.64023,108.59375c0,0.26855 0.04434,0.37852 0.09844,0.24414c0.0543,-0.13418 0.0543,-0.35391 0,-0.48828c-0.0541,-0.13418 -0.09844,-0.02441 -0.09844,0.24414M143.50586,108.84805c-0.725,0.22207 -1.31836,0.48574 -1.31836,0.58574c0,0.1002 0.16406,0.13906 0.36484,0.08672c0.24629,-0.06445 0.35723,0.00371 0.3418,0.20977c-0.0168,0.22324 0.17598,0.31211 0.7168,0.33047c0.52031,0.01758 0.71191,-0.04766 0.6457,-0.22012c-0.05176,-0.13477 0.01094,-0.2877 0.13906,-0.33984c0.12832,-0.05234 0.03535,-0.10195 -0.20625,-0.11035c-0.2416,-0.0084 -0.43945,-0.1127 -0.43945,-0.23164c0,-0.11895 0.13184,-0.16562 0.29297,-0.10371c0.16113,0.06172 0.29297,0.03457 0.29297,-0.06055c0,-0.09512 0.2416,-0.26113 0.53711,-0.36914c0.95996,-0.35059 -0.01309,-0.19219 -1.36719,0.22266M144.93613,108.98438c-0.04043,0.71914 -0.44844,1.8082 -0.59082,1.57754c-0.1127,-0.18203 -0.18105,-0.16289 -0.27285,0.07637c-0.07168,0.18672 -0.04238,0.26992 0.07031,0.2002c0.375,-0.23164 0.18516,0.20918 -0.50547,1.17383c-0.7498,1.04707 -1.2416,1.89102 -0.91035,1.56191c0.10801,-0.10742 0.59902,-0.78965 1.09121,-1.51582c0.87305,-1.28906 1.41621,-2.67637 1.22832,-3.1373c-0.05723,-0.14004 -0.1002,-0.11543 -0.11035,0.06328M201.19687,109.13086c0.24277,0.30977 0.23594,0.3166 -0.07383,0.07383c-0.32539,-0.25527 -0.42871,-0.41562 -0.26797,-0.41562c0.04043,0 0.19434,0.15391 0.3418,0.3418M143.94531,109.84941c0,0.16934 -0.47012,0.03926 -0.62188,-0.17207c-0.23516,-0.32734 0.0502,-0.51133 0.34141,-0.22012c0.1543,0.1543 0.28047,0.33066 0.28047,0.39219M149.45215,110.05859c0.00391,0.32227 0.04766,0.43047 0.09727,0.24043c0.04961,-0.19004 0.04629,-0.45371 -0.00723,-0.58594c-0.05352,-0.13223 -0.09395,0.02324 -0.09004,0.34551M159.33848,110.09434c0.14082,0.05645 0.30938,0.04941 0.37422,-0.01543c0.06484,-0.06484 -0.05039,-0.11094 -0.25625,-0.10254c-0.22754,0.00937 -0.27383,0.05566 -0.11797,0.11797M160.40313,110.29648c0.29688,0.04473 0.73633,0.04355 0.97656,-0.00273c0.24023,-0.04629 -0.00273,-0.08301 -0.53984,-0.08164c-0.53711,0.00156 -0.73359,0.03945 -0.43672,0.08438M163.52539,110.49668c0.83262,0.03672 2.19473,0.03672 3.02734,0c0.83262,-0.03652 0.15137,-0.0666 -1.51367,-0.0666c-1.66504,0 -2.34629,0.03008 -1.51367,0.0666M149.28809,112.59766c-0.00059,0.9668 0.03242,1.38691 0.07344,0.93359c0.04082,-0.45332 0.04141,-1.24434 0.00098,-1.75781c-0.04023,-0.51348 -0.07383,-0.14258 -0.07441,0.82422M142.62695,111.26211c-0.13418,0.0543 -0.24414,0.19668 -0.24414,0.3166c0,0.15645 0.06367,0.15449 0.2252,-0.00703c0.15371,-0.15371 0.33848,-0.16465 0.58164,-0.03457c0.28281,0.15137 0.33281,0.1293 0.24219,-0.10684c-0.11504,-0.29961 -0.35488,-0.34961 -0.80488,-0.16816M142.53047,112.05664c0.13496,0.04746 0.19023,0.1752 0.12305,0.28418c-0.07187,0.11602 0.04902,0.10625 0.2916,-0.02344c0.54512,-0.2918 0.52285,-0.35527 -0.12285,-0.35059c-0.29551,0.00215 -0.42676,0.04258 -0.2918,0.08984M146.46816,112.97207c-0.12617,0.50059 -0.26582,0.87344 -0.31055,0.82871c-0.04492,-0.04473 0.02168,-0.49102 0.14766,-0.9916c0.12617,-0.50059 0.26582,-0.87344 0.31055,-0.82871c0.04492,0.04473 -0.02168,0.49102 -0.14766,0.9916M133.6752,114.79492c0.08047,0.08066 0.24902,0.14668 0.37422,0.14688c0.13828,0 0.23672,0.36289 0.2502,0.92266c0.01211,0.50742 -0.05,0.87793 -0.13809,0.82363c-0.08809,-0.05449 -0.11055,-0.22812 -0.05,-0.38574c0.06973,-0.18184 -0.00996,-0.28672 -0.21777,-0.28672c-0.29805,0 -0.3,-0.02793 -0.0209,-0.30684c0.16875,-0.16895 0.3041,-0.41055 0.30098,-0.53711c-0.00332,-0.12676 -0.09551,-0.07637 -0.20508,0.11152c-0.24629,0.42266 -0.65547,0.45469 -0.4957,0.03867c0.06387,-0.1668 0.03848,-0.25508 -0.05645,-0.19648c-0.09492,0.05879 -0.22285,-0.02461 -0.28457,-0.18516c-0.11602,-0.30234 0.28008,-0.4084 0.54316,-0.14531M149.60938,115.21621c0,0.17832 1.34473,1.48242 1.41484,1.37207c0.02949,-0.04648 -0.27676,-0.40488 -0.68066,-0.79668c-0.40371,-0.3918 -0.73418,-0.65059 -0.73418,-0.57539M136.32813,116.90781c0,0.01563 -0.26348,0.01895 -0.58555,0.00742c-0.53555,-0.01895 -0.69609,-0.21934 -0.60762,-0.75859c0.01367,-0.08359 -0.10781,-0.20273 -0.26992,-0.26504c-0.16211,-0.06211 -0.29473,-0.1959 -0.29473,-0.29727c0,-0.10117 0.39551,0.14648 0.87891,0.55059c0.4834,0.4041 0.87891,0.74746 0.87891,0.76289M142.67578,116.40625c0.5291,0.53711 1.00586,0.97656 1.05957,0.97656c0.05371,0 -0.33516,-0.43945 -0.86426,-0.97656c-0.5291,-0.53711 -1.00586,-0.97656 -1.05957,-0.97656c-0.05371,0 0.33516,0.43945 0.86426,0.97656M206.83594,116.2957c0,0.04648 -0.52383,0.49629 -1.16426,0.99941c-0.64043,0.50293 -1.1457,1.01016 -1.12305,1.12676c0.02266,0.1168 -0.13438,0.21641 -0.34883,0.22129c-0.21465,0.00508 -0.39043,0.11465 -0.39062,0.24355c-0.00039,0.12891 -0.12344,0.34863 -0.27344,0.48828c-0.225,0.20938 -0.2459,0.20664 -0.11934,-0.01562c0.10469,-0.1834 0.06699,-0.24063 -0.11777,-0.17891c-0.14922,0.04961 -0.28223,0.19297 -0.2957,0.31816c-0.01348,0.12539 -0.03535,0.31484 -0.04883,0.4209c-0.01348,0.10625 -0.22227,0.17207 -0.46387,0.14648c-0.2418,-0.02559 -0.4209,0.05293 -0.39824,0.17461c0.02266,0.12168 -0.10918,0.20957 -0.29297,0.19531c-0.18379,-0.01406 -0.32051,0.06211 -0.30391,0.16953c0.19043,1.22559 0.22422,1.1707 -0.73047,1.18926c-0.94277,0.01836 -1.42344,0.19492 -1.2582,0.4623c0.0543,0.08789 -0.0541,0.14766 -0.24102,0.13301c-0.22227,-0.01758 -0.31973,0.09141 -0.28223,0.31504c0.03145,0.18789 -0.03965,0.3418 -0.15801,0.3418c-0.11855,0 -0.15566,-0.09668 -0.08262,-0.21484c0.09316,-0.15098 0.00957,-0.14883 -0.28145,0.00684c-0.4748,0.2543 -0.55859,0.44648 -0.12129,0.27871c0.4084,-0.15684 0.36523,0.05234 -0.10879,0.52637c-0.28105,0.28105 -0.38379,0.31426 -0.3418,0.11035c0.03301,-0.16016 -0.02793,-0.29336 -0.13535,-0.2959c-0.36582,-0.00859 -4.77109,3.35957 -4.65,3.55527c0.06621,0.10742 0.0248,0.13594 -0.09199,0.06367c-0.20117,-0.12422 -8.35762,5.55781 -9.50605,6.62207c-0.35547,0.32949 -0.50469,0.62891 -0.43906,0.88047c0.05488,0.20957 0.02012,0.38105 -0.07734,0.38105c-0.09727,0 -0.17695,-0.21152 -0.17695,-0.47012c0,-0.59043 0.77012,-1.23809 5.37109,-4.5166c3.53848,-2.52129 12.69492,-9.2875 16.50391,-12.1959c2.07285,-1.58281 2.14844,-1.63477 2.14844,-1.48262M152.20313,116.74531c0.51348,0.04043 1.30449,0.03984 1.75781,-0.00098c0.45332,-0.04102 0.0332,-0.07402 -0.93359,-0.07344c-0.9668,0.00059 -1.3377,0.03418 -0.82422,0.07441M136.59727,117.92832c0.09453,0.05195 0.01797,0.18047 -0.16973,0.28555c-0.24375,0.13652 -0.38945,0.11484 -0.51035,-0.07598c-0.3373,-0.53262 -0.06055,-0.61797 0.68008,-0.20957M144.72656,118.26172c0.25234,0.26855 0.50273,0.48828 0.55645,0.48828c0.05371,0 -0.10879,-0.21973 -0.36113,-0.48828c-0.25234,-0.26855 -0.50273,-0.48828 -0.55645,-0.48828c-0.05371,0 0.10879,0.21973 0.36113,0.48828M140.71738,118.56328c-0.06348,0.10273 0.06563,0.18672 0.28672,0.18672c0.47168,0 0.51914,-0.10859 0.11543,-0.26348c-0.15762,-0.06055 -0.33867,-0.02598 -0.40215,0.07676M139.16855,118.93184c-0.06191,0.1 -0.02305,0.23691 0.08613,0.30449c0.10918,0.06738 0.19844,-0.01445 0.19844,-0.18184c0,-0.34316 -0.11719,-0.39355 -0.28457,-0.12266M145.89844,119.23828c0.25234,0.26855 0.50273,0.48828 0.55645,0.48828c0.05371,0 -0.10879,-0.21973 -0.36113,-0.48828c-0.25234,-0.26855 -0.50273,-0.48828 -0.55645,-0.48828c-0.05371,0 0.10879,0.21973 0.36113,0.48828M137.5502,119.38223c-0.02578,0.34355 0.00645,0.3748 0.15078,0.14648c0.22578,-0.35703 0.23965,-0.5834 0.03594,-0.5834c-0.08457,0 -0.16855,0.19668 -0.18672,0.43691M205.56777,119.13848c-0.06836,0.11055 0.00996,0.14336 0.18379,0.07676c0.33828,-0.12988 0.4002,-0.26992 0.11934,-0.26992c-0.10117,0 -0.2375,0.08691 -0.30313,0.19316M137.40234,120.11719c0.06641,0.10742 0.03281,0.19531 -0.07461,0.19531c-0.10742,0 -0.24961,-0.08789 -0.31602,-0.19531c-0.06641,-0.10742 -0.03281,-0.19531 0.07461,-0.19531c0.10742,0 0.24961,0.08789 0.31602,0.19531M140.86914,120.99746c0,0.29219 -0.1209,0.61602 -0.26855,0.71934c-0.22598,0.1582 -0.225,0.17617 0.00566,0.11426c0.35293,-0.09492 0.61406,-0.79668 0.41582,-1.11738c-0.09687,-0.15684 -0.15293,-0.05293 -0.15293,0.28379M200.68359,121.20859l-0.58594,0.50332l0.63477,-0.41992c0.34902,-0.23105 0.63477,-0.4582 0.63477,-0.50449c0,-0.14629 -0.08262,-0.09531 -0.68359,0.42109M203.49063,121.04492c-0.24277,0.30977 -0.23594,0.3166 0.07383,0.07383c0.32539,-0.25527 0.42871,-0.41562 0.26797,-0.41562c-0.04043,0 -0.19434,0.15391 -0.3418,0.3418M148.04688,120.97227c0,0.04043 0.15391,0.19434 0.3418,0.3418c0.30977,0.24277 0.3166,0.23594 0.07383,-0.07383c-0.25527,-0.32539 -0.41562,-0.42871 -0.41562,-0.26797M138.92148,121.31289c-0.12051,0.12051 -0.17363,0.36211 -0.11836,0.53711c0.08535,0.26855 0.06953,0.27344 -0.10156,0.03164c-0.19199,-0.27148 0.02188,-0.78789 0.32617,-0.78789c0.06211,0 0.01426,0.09863 -0.10625,0.21914M149.11367,122.12891c-0.0041,0.23633 -0.07168,0.67129 -0.1502,0.9668c-0.07852,0.29551 -0.06484,0.53711 0.03047,0.53711c0.21426,0 0.44902,-1.6082 0.2623,-1.79687c-0.07422,-0.0752 -0.13848,0.05664 -0.14258,0.29297M140.73945,122.38984c-0.10762,0.28066 0.17813,1.04766 0.39043,1.04766c0.05527,0 0.01641,-0.1502 -0.08633,-0.33359c-0.13418,-0.24004 -0.10176,-0.3957 0.11543,-0.55449c0.27227,-0.19922 0.27207,-0.23242 -0.00215,-0.3377c-0.17637,-0.06777 -0.35176,0.00703 -0.41738,0.17812M147.02148,123.5668c0.13437,0.0543 0.3541,0.0543 0.48828,0c0.13437,-0.0541 0.02441,-0.09844 -0.24414,-0.09844c-0.26855,0 -0.37832,0.04434 -0.24414,0.09844M143.5082,123.7709c0.24297,0.04668 0.59453,0.04492 0.78125,-0.00391c0.18672,-0.04883 -0.01211,-0.08711 -0.4418,-0.08496c-0.42969,0.00215 -0.58242,0.04219 -0.33945,0.08887M198.88242,123.85195c-0.12051,0.12051 -0.18086,0.31855 -0.13418,0.44023c0.04668,0.12168 -1.02383,1.23125 -2.37871,2.46563c-1.35488,1.23457 -3.07949,2.96992 -3.83223,3.85664c-0.75273,0.88672 -1.41133,1.61211 -1.46328,1.61211c-0.36133,0 4.36016,-4.98066 6.6459,-7.01074c0.51836,-0.46055 0.90332,-0.87656 0.85508,-0.92461c-0.04805,-0.04805 -0.83066,0.46523 -1.73906,1.14082c-0.9084,0.67539 -3.2707,2.32637 -5.24961,3.66875c-1.97891,1.34219 -4.65273,3.2248 -5.9418,4.18359c-1.28906,0.95879 -2.21348,1.58496 -2.05449,1.39141c0.36543,-0.44453 2.58828,-2.12539 5.41914,-4.09785c1.20605,-0.84043 2.15195,-1.59434 2.10176,-1.67539c-0.05,-0.08105 0.05957,-0.13535 0.24395,-0.1207c0.18418,0.01465 0.33711,-0.07578 0.33965,-0.20117c0.00254,-0.1252 0.08477,-0.30098 0.18242,-0.39062c0.10332,-0.09453 0.11895,-0.06035 0.0373,0.08145c-0.07715,0.13437 -0.0875,0.24414 -0.02266,0.24414c0.1502,0 4.10117,-2.71387 5.74492,-3.9459c1.18262,-0.88652 1.72988,-1.20176 1.2459,-0.71777M144.82422,124.02871c-3.84102,0.3123 -5.37109,0.72754 -5.37109,1.45723c0,0.56074 0.65625,0.65879 3.23047,0.48281c2.98301,-0.20391 11.3043,-0.21152 14.64063,-0.01328c1.28906,0.07637 2.45371,0.10312 2.58789,0.05918c0.39688,-0.12988 0.27891,-0.7875 -0.19707,-1.09941c-1.08066,-0.70801 -10.32207,-1.2582 -14.89082,-0.88652M139.25781,126.17188c0,0.10742 0.09316,0.19531 0.20684,0.19531c0.11367,0 0.15254,-0.08789 0.08613,-0.19531c-0.06641,-0.10742 -0.15937,-0.19531 -0.20684,-0.19531c-0.04746,0 -0.08613,0.08789 -0.08613,0.19531M143.4082,126.31172c0.29551,0.04473 0.77871,0.04473 1.07422,0c0.29551,-0.04473 0.05371,-0.08125 -0.53711,-0.08125c-0.59082,0 -0.83262,0.03652 -0.53711,0.08125M146.26074,127.17285c0.04785,0.69219 -0.0123,1.05313 -0.19531,1.16914c-0.20586,0.13047 -0.18887,0.16836 0.07715,0.1707c0.28789,0.00254 0.3418,-0.18203 0.3418,-1.16895c0,-0.64453 -0.06582,-1.17187 -0.14648,-1.17207c-0.08066,0 -0.11523,0.45059 -0.07715,1.00117M140.82031,127.02695c0,0.04043 0.15391,0.19434 0.3418,0.3418c0.30977,0.24277 0.3166,0.23594 0.07383,-0.07383c-0.25527,-0.32539 -0.41562,-0.42871 -0.41562,-0.26797M146.58203,128.7123c-0.42969,0.08359 -0.85859,0.10508 -0.95312,0.04805c-0.09453,-0.05703 -0.13848,-0.00898 -0.09766,0.10703c0.04082,0.11582 0.81445,0.74453 1.71914,1.39688c1.19961,0.86484 1.75488,1.15449 2.05078,1.06973c0.22324,-0.06387 1.25801,-0.52637 2.29961,-1.02793l1.89395,-0.91152l-0.70176,1.26953c-0.38594,0.69824 -1.3166,2.3043 -2.06816,3.56914c-0.75156,1.26465 -1.32012,2.3459 -1.26328,2.40273c0.05664,0.05664 0.31777,-0.275 0.58027,-0.73711c0.2625,-0.46211 1.27363,-2.21934 2.24727,-3.90469l1.77012,-3.06465l-0.96504,-0.20684c-1.09082,-0.23398 -5.32656,-0.24063 -6.51211,-0.01035M145.3125,129.5248c0,0.1252 0.05488,0.17305 0.12168,0.10605c0.06699,-0.06699 0.44063,0.10508 0.83008,0.38223l0.7084,0.5041l-0.68359,-0.60488c-0.73574,-0.65117 -0.97656,-0.74668 -0.97656,-0.3875M142.21172,132.66934c-0.19297,0.19141 -0.21523,0.16895 -0.10937,-0.10937c0.07344,-0.19258 0.18262,-0.30098 0.24277,-0.24082c0.06016,0.05996 0.0002,0.21758 -0.1334,0.3502M143.35938,132.45449c0,0.08945 -0.13184,0.1627 -0.29297,0.1627c-0.16113,0 -0.29297,-0.07324 -0.29297,-0.1627c0,-0.08965 0.13184,-0.16289 0.29297,-0.16289c0.16113,0 0.29297,0.07324 0.29297,0.16289M191.21094,134.0582c0,0.04043 -0.15391,0.19434 -0.3418,0.3418c-0.30977,0.24277 -0.3166,0.23594 -0.07383,-0.07383c0.25527,-0.32539 0.41562,-0.42871 0.41562,-0.26797M142.1875,135.07012c0,0.41543 -0.07891,0.64629 -0.19609,0.57402c-0.10781,-0.0666 -0.13887,-0.34863 -0.06914,-0.62656c0.09668,-0.38535 0.0666,-0.46816 -0.12715,-0.34863c-0.16738,0.10352 -0.20645,0.08027 -0.11445,-0.06836c0.26992,-0.43711 0.50684,-0.21777 0.50684,0.46953M144.59355,134.66582c0.02344,0.22754 0.20059,0.40469 0.42812,0.42812c0.28184,0.02891 0.29785,0.01289 0.05859,-0.05859c-0.18125,-0.0541 -0.37402,-0.24687 -0.42812,-0.42812c-0.07148,-0.23926 -0.0875,-0.22324 -0.05859,0.05859M165.13027,135.90078c-0.37109,1.59023 -0.97988,2.76172 -2.44727,4.70918c-1.57461,2.08965 -5.91484,6.53613 -6.26328,6.4166c-0.19414,-0.0668 -0.2623,-0.46074 -0.24844,-1.44004c0.0332,-2.37285 0.22656,-2.74414 2.27324,-4.3627c0.99512,-0.78691 2.95195,-2.59121 4.34844,-4.00937c1.39648,-1.41797 2.55742,-2.56738 2.58008,-2.55391c0.02246,0.01328 -0.08672,0.57148 -0.24277,1.24023M144.14063,135.04707c0,0.04746 -0.08789,0.14043 -0.19531,0.20684c-0.10742,0.06641 -0.19531,0.02754 -0.19531,-0.08613c0,-0.11367 0.08789,-0.20684 0.19531,-0.20684c0.10742,0 0.19531,0.03867 0.19531,0.08613M143.65234,136.13281c0.07187,0.11641 -0.14043,0.1875 -0.52559,0.17578c-0.60762,-0.01816 -0.61699,-0.02871 -0.15801,-0.17578c0.26855,-0.08594 0.50508,-0.16504 0.52559,-0.17578c0.02051,-0.01074 0.0916,0.06836 0.15801,0.17578M148.01035,136.46152c0.14082,0.05645 0.30938,0.04941 0.37422,-0.01543c0.06484,-0.06484 -0.05039,-0.11094 -0.25625,-0.10254c-0.22754,0.00937 -0.27383,0.05566 -0.11797,0.11797M187.20703,144.29316l2.14844,1.88477l-2.76582,2.09805c-2.45547,1.86289 -5.8373,4.17461 -7.07969,4.83945c-0.91934,0.49219 3.43496,-3.56309 6.45391,-6.01035c0.30781,-0.24961 0.55957,-0.53809 0.55957,-0.64121c0,-0.10293 -0.47402,-0.86563 -1.05332,-1.69473c-1.03027,-1.4748 -2.26699,-3.47852 -2.26699,-3.67344c0,-0.17344 1.79707,1.26172 4.00391,3.19746M204.53906,143.25547c1.66973,0.91777 5.19648,2.04844 6.98438,2.23926c1.31875,0.14082 1.36504,0.15898 0.46445,0.18242c-1.92871,0.05 -5.97578,-1.25859 -8.27695,-2.67637c-1.07012,-0.65938 -0.53574,-0.49492 0.82813,0.25469M215.19258,144.89941c0.06309,0.16406 -0.12871,0.46934 -0.4625,0.73633c-0.82676,0.66152 -1.07109,0.56289 -0.26953,-0.10879c0.37188,-0.31191 0.63223,-0.60762 0.57852,-0.65723c-0.05371,-0.04961 -0.95469,-0.54902 -2.00195,-1.10996c-1.04727,-0.56113 -1.9043,-1.06211 -1.9043,-1.11367c0,-0.20547 3.95957,1.99238 4.05977,2.25332M205.32227,142.90273c-0.13418,0.0543 -0.35391,0.0543 -0.48828,0c-0.13418,-0.0541 -0.02441,-0.09844 0.24414,-0.09844c0.26855,0 0.37852,0.04434 0.24414,0.09844M207.74141,143.48047c1.54258,0.51406 2.15352,0.80996 1.24297,0.60215c-0.77598,-0.17734 -3.2457,-1.08125 -3.00078,-1.09844c0.12207,-0.0084 0.91309,0.21484 1.75781,0.49629"/></g></svg>